# AST/ASF file generated using VICON BodyLanguage
# -----------------------------------------------
:version 1.10
:name VICON
:units
  mass 1.0
  length 0.45
  angle deg
:documentation
   .ast/.asf automatically generated from VICON data using
   VICON BodyBuilder and BodyLanguage model FoxedUp or BRILLIANT.MOD
:root
   order TX TY TZ RX RY RZ
   axis XYZ
   position 0 0 0  
   orientation 0 0 0 
:bonedata
  begin
     id 1 
     name lhipjoint
     direction 0.624716 -0.669793 0.401383 
     length 2.38238 
     axis 0 0 0  XYZ
  end
  begin
     id 2 
     name lfemur
     direction 0.34202 -0.939693 0  
     length 6.4574  
     axis 0 0 20  XYZ
    dof rx ry rz
    limits (-160.0 20.0)
           (-70.0 70.0)
           (-60.0 70.0)
  end
  begin
     id 3 
     name ltibia
     direction 0.34202 -0.939693 0   
     length 7.68739   
     axis 0 0 20   XYZ
    dof rx
    limits (-10.0 170.0)
  end
  begin
     id 4 
     name lfoot
     direction 0.0681309 -0.187188 0.979959   
     length 2.46615   
     axis -90 7.62852e-016 20   XYZ
    dof rx rz
    limits (-45.0 90.0)
           (-70.0 20.0)
  end
  begin
     id 5 
     name ltoes
     direction 1.53566e-011 -4.21819e-011 1   
     length 1.2376   
     axis -90 7.62852e-016 20   XYZ
    dof rx
    limits (-90.0 20.0)
  end
  begin
     id 6 
     name rhipjoint
     direction -0.644473 -0.655875 0.393043   
     length 2.43293  
     axis 0 0 0  XYZ 
  end
  begin
     id 7 
     name rfemur
     direction -0.34202 -0.939693 0   
     length 6.7025   
     axis 0 0 -20   XYZ
    dof rx ry rz
    limits (-160.0 20.0)
           (-70.0 70.0)
           (-70.0 60.0)
  end
  begin
     id 8 
     name rtibia
     direction -0.34202 -0.939693 0   
     length 7.80547   
     axis 0 0 -20   XYZ
    dof rx
    limits (-10.0 170.0)
 end
 begin
     id 9 
     name rfoot
     direction -0.0756734 -0.207911 0.975216   
     length 2.40315  
     axis -90 -7.62852e-016 -20   XYZ
    dof rx rz
    limits (-45.0 90.0)
           (-20.0 70.0)
  end
  begin
     id 10 
     name rtoes
     direction -1.5353e-011 -4.21879e-011 1   
     length 1.20477   
     axis -90 -7.62852e-016 -20   XYZ
    dof rx
    limits (-90.0 20.0)
  end
  begin
     id 11 
     name lowerback
     direction 0.0160353 0.987463 -0.157037   
     length 2.18572   
     axis 0 0 0   XYZ
    dof rx ry rz
    limits (-20.0 45.0)
           (-30.0 30.0)
           (-30.0 30.0)
  end
  begin
     id 12 
     name upperback
     direction -0.00499661 0.999756 0.0215076   
     length 2.18016   
     axis 0 0 0   XYZ
    dof rx ry rz
    limits (-20.0 45.0)
           (-30.0 30.0)
           (-30.0 30.0)
  end
  begin
     id 13 
     name thorax
     direction -0.00921346 0.995333 0.0960619   
     length 2.24923   
     axis 0 0 0   XYZ
    dof rx ry rz
    limits (-20.0 45.0)
           (-30.0 30.0)
           (-30.0 30.0)
  end
  begin
     id 14 
     name lowerneck
     direction 0.0274184 0.991181 0.12965   
     length 1.70911   
     axis 0 0 0   XYZ
    dof rx ry rz
    limits (-20.0 45.0)
           (-30.0 30.0)
           (-30.0 30.0)
  end
  begin
     id 15 
     name upperneck
     direction 0.0015627 0.999959 -0.00893559   
     length 1.69312   
     axis 0 0 0   XYZ
    dof rx ry rz
    limits (-20.0 45.0)
           (-30.0 30.0)
           (-30.0 30.0)
  end
  begin
     id 16
     name head
     direction -0.00230242 0.999856 -0.0168327  
     length 1.80241  
     axis 0 0 0   XYZ
    dof rx ry rz
    limits (-20.0 45.0)
           (-30.0 30.0)
           (-30.0 30.0)
  end
  begin
     id 17 
     name lclavicle
     direction 0.955523 0.290741 -0.0494489  
     length 3.84275  
     axis 0 0 0   XYZ
    dof ry rz
    limits (-20.0 10.0)
           (0.0 20.0)
  end
  begin
     id 18 
     name lhumerus
     direction 1 -4.48967e-011 -3.18382e-028   
     length 5.17714   
     axis 180 -30 -90   XYZ
    dof rx ry rz
    limits (-60.0 90.0)
           (-90.0 90.0)
           (-90.0 90.0)
  end
  begin
     id 19
     name lradius
     direction 1 -4.48968e-011 -2.22911e-027   
     length 3.43679   
     axis 180 -30 -90   XYZ
    dof rx
    limits (-10.0 170.0)
  end
  begin
     id 20
     name lwrist
     direction 1 -4.48951e-011 -6.32245e-027   
     length 1.7184   
     axis 3.57107e-015 90 90   XYZ
    dof ry
    limits (-180.0 0.0)
 end
  begin
     id 21 
     name lhand
     direction 1 -4.48924e-011 -1.26431e-026   
     length 0.573117   
     axis 8.06912e-015 90 90   XYZ
    dof rx rz
    limits (-90.0 90.0)
           (-45.0 45.0)
  end
  begin
     id 22 
     name lfingers
     direction 1 -4.49001e-011 -2.52965e-026   
     length 0.462062   
     axis 1.61381e-014 90 90   XYZ
    dof rx
    limits (0.0 90.0)
  end
  begin
     id 23
     name lthumb
     direction 0.707107 -6.35008e-011 0.707107   
     length 0.663431   
     axis -90 45 -1.62303e-014   XYZ
    dof rx rz
    limits (-45.0 45.0)
           (-45.0 45.0)
  end
  begin
     id 24 
     name rclavicle
     direction -0.963917 0.256881 -0.0698287   
     length 3.73057  
     axis 0 0 0   XYZ 
    dof ry rz
    limits (-10.0 20.0)
           (-20.0 0.0)
  end
  begin
     id 25 
     name rhumerus
     direction -1 -4.48962e-011 -2.73982e-027  
     length 5.23908   
     axis 180 30 90   XYZ
    dof rx ry rz
    limits (-90.0 60.0)
           (-90.0 90.0)
           (-90.0 90.0)
  end
  begin
     id 26 
     name rradius
     direction -1 -4.48968e-011 -4.33218e-027   
     length 3.46485   
     axis 180 30 90   XYZ
    dof rx
    limits (-10.0 170.0)
  end
  begin
     id 27 
     name rwrist
     direction -1 -4.48989e-011 -6.32372e-027   
     length 1.73243   
     axis 3.57107e-015 -90 -90   XYZ
    dof ry
    limits (-180.0 0.0)
  end
  begin
     id 28
     name rhand
     direction -1 -4.48948e-011 -1.26448e-026   
     length 0.608752   
     axis 8.06912e-015 -90 -90   XYZ
    dof rx rz
    limits (-90.0 90.0)
           (-45.0 45.0)
  end
  begin
     id 29
     name rfingers
     direction -1 -4.48962e-011 -2.52913e-026   
     length 0.490792   
     axis 1.61381e-014 -90 -90   XYZ
    dof rx
    limits (0.0 90.0)
  end
  begin
     id 30
     name rthumb
     direction -0.707107 -6.34878e-011 0.707107   
     length 0.704682   
     axis -90 -45 1.62303e-014   XYZ
    dof rx rz
    limits (-45.0 45.0)
           (-45.0 45.0)
  end
:hierarchy
  begin
    root lhipjoint rhipjoint lowerback
    lhipjoint lfemur
    lfemur ltibia
    ltibia lfoot
    lfoot ltoes
    rhipjoint rfemur
    rfemur rtibia
    rtibia rfoot
    rfoot rtoes
    lowerback upperback
    upperback thorax
    thorax lowerneck lclavicle rclavicle
    lowerneck upperneck
    upperneck head
    lclavicle lhumerus
    lhumerus lradius
    lradius lwrist
    lwrist lhand lthumb
    lhand lfingers
    rclavicle rhumerus
    rhumerus rradius
    rradius rwrist
    rwrist rhand rthumb
    rhand rfingers
  end

#!OML:ASF G:\JayActor3\Patient Classification 1\Patient 1\Session 6\male.ASF
:FULLY-SPECIFIED
:DEGREES
57
root 6.05445 16.5457 -4.63186 114.324 -86.3846 -115.036
lowerback -2.2791 -0.660561 2.78383
upperback 0.617735 -0.96992 0.171854
thorax 1.86862 -0.454327 -1.42104
lowerneck -8.35452 -0.499067 0.910003
upperneck 5.68275 -1.00044 2.75164
head 3.32247 -0.368138 0.6864
rclavicle -4.53788e-015 -4.37326e-015
rhumerus 6.76984 -13.8857 -23.2296
rradius 24.3391
rwrist 6.58772
rhand -8.94776 -6.51251
rfingers 7.12502
rthumb 16.9967 -35.7889
lclavicle -4.53788e-015 -4.37326e-015
lhumerus 0.466758 -2.05506 14.6181
lradius 29.6001
lwrist 27.0493
lhand -5.90016 21.3904
lfingers 7.12502
lthumb 19.9283 50.3886
rfemur -6.68262 2.8453 23.4712
rtibia 30.6643
rfoot -23.7649 -11.9246
rtoes 2.13226
lfemur 2.82083 3.80947 -13.348
ltibia 14.3634
lfoot -16.1099 11.4334
ltoes -2.54086
58
root 6.05626 16.5456 -4.63166 114.581 -86.4074 -115.316
lowerback -2.26362 -0.664775 2.74865
upperback 0.625426 -0.973935 0.165869
thorax 1.86809 -0.456609 -1.40747
lowerneck -8.40848 -0.491712 0.89159
upperneck 5.72689 -0.992128 2.76834
head 3.34849 -0.362775 0.695814
rclavicle 2.89791e-015 3.18055e-015
rhumerus 6.91719 -14.247 -23.2903
rradius 24.1891
rwrist 6.96223
rhand -8.98883 -6.41897
rfingers 7.12502
rthumb 16.9572 -35.6987
lclavicle 2.89791e-015 3.18055e-015
lhumerus 0.522032 -2.26462 14.4411
lradius 29.7278
lwrist 27.6323
lhand -6.25239 21.6411
lfingers 7.12502
lthumb 19.5897 50.6741
rfemur -6.66704 2.83988 23.4375
rtibia 30.6649
rfoot -23.7562 -11.9151
rtoes 2.10526
lfemur 2.83062 3.80531 -13.3773
ltibia 14.3833
lfoot -16.1457 11.4265
ltoes -2.49804
59
root 6.05861 16.5457 -4.63136 114.785 -86.3851 -115.528
lowerback -2.2519 -0.665544 2.75743
upperback 0.62286 -0.974952 0.172244
thorax 1.8588 -0.457225 -1.40569
lowerneck -8.40413 -0.493187 0.91425
upperneck 5.71402 -0.992693 2.72572
head 3.34259 -0.364381 0.677711
rclavicle -7.07549e-015 -9.34288e-015
rhumerus 6.93203 -14.1259 -23.1876
rradius 24.1671
rwrist 6.87083
rhand -9.11846 -6.43661
rfingers 7.12502
rthumb 16.8324 -35.7271
lclavicle -7.07549e-015 -9.34288e-015
lhumerus 0.572006 -2.24702 14.2473
lradius 29.6337
lwrist 27.4014
lhand -5.83703 21.1705
lfingers 7.12502
lthumb 19.989 50.1624
rfemur -6.6709 2.85623 23.4532
rtibia 30.6659
rfoot -23.7502 -11.9125
rtoes 2.13856
lfemur 2.82713 3.832 -13.3589
ltibia 14.396
lfoot -16.1351 11.421
ltoes -2.49417
60
root 6.06084 16.5455 -4.63133 114.662 -86.3555 -115.417
lowerback -2.22756 -0.670909 2.77918
upperback 0.611054 -0.982026 0.183957
thorax 1.83255 -0.461092 -1.40565
lowerneck -8.37828 -0.483388 0.896183
upperneck 5.70789 -0.978226 2.74312
head 3.33559 -0.357214 0.687378
rclavicle -1.01877e-015 -3.77691e-015
rhumerus 6.97351 -14.1425 -23.1428
rradius 24.1303
rwrist 6.92506
rhand -9.23853 -6.4337
rfingers 7.12502
rthumb 16.7168 -35.7339
lclavicle -1.01877e-015 -3.77691e-015
lhumerus 0.652606 -2.07474 14.1111
lradius 29.5259
lwrist 27.0205
lhand -5.58231 21.3007
lfingers 7.12502
lthumb 20.2338 50.2669
rfemur -6.66916 2.87652 23.489
rtibia 30.6661
rfoot -23.7362 -11.9457
rtoes 2.09105
lfemur 2.82703 3.83149 -13.3258
ltibia 14.4012
lfoot -16.1245 11.4311
ltoes -2.50281
61
root 6.06297 16.5457 -4.63087 114.962 -86.3553 -115.718
lowerback -2.23224 -0.667448 2.76588
upperback 0.611877 -0.977253 0.187248
thorax 1.8365 -0.458816 -1.39473
lowerneck -8.3984 -0.486164 0.87835
upperneck 5.73003 -0.980436 2.73913
head 3.3473 -0.358389 0.689202
rclavicle -9.66901e-015 -2.98177e-015
rhumerus 7.03968 -14.2543 -23.1126
rradius 24.064
rwrist 7.01079
rhand -9.42864 -6.45653
rfingers 7.12502
rthumb 16.5338 -35.7721
lclavicle -9.66901e-015 -2.98177e-015
lhumerus 0.711297 -2.2473 13.9398
lradius 29.5644
lwrist 27.3846
lhand -5.93146 21.5711
lfingers 7.12502
lthumb 19.8982 50.5724
rfemur -6.67864 2.89696 23.4793
rtibia 30.6638
rfoot -23.7421 -11.9366
rtoes 2.1498
lfemur 2.81129 3.85039 -13.3344
ltibia 14.4183
lfoot -16.1398 11.4179
ltoes -2.48319
62
root 6.06393 16.5454 -4.6302 115.082 -86.3474 -115.854
lowerback -2.20784 -0.665405 2.77745
upperback 0.600841 -0.973829 0.185757
thorax 1.8114 -0.457425 -1.40217
lowerneck -8.41256 -0.480041 0.864888
upperneck 5.76292 -0.973455 2.75763
head 3.36168 -0.353992 0.698206
rclavicle -9.31803e-016 -7.15625e-015
rhumerus 7.10734 -14.424 -23.1146
rradius 23.9877
rwrist 7.17161
rhand -9.52817 -6.38207
rfingers 7.12502
rthumb 16.438 -35.7056
lclavicle -9.31803e-016 -7.15625e-015
lhumerus 0.784129 -2.19639 13.8071
lradius 29.5152
lwrist 27.3343
lhand -5.95785 21.6366
lfingers 7.12502
lthumb 19.8729 50.6406
rfemur -6.66538 2.87782 23.4769
rtibia 30.6627
rfoot -23.7112 -11.9352
rtoes 2.08776
lfemur 2.82429 3.85176 -13.333
ltibia 14.429
lfoot -16.1498 11.4148
ltoes -2.42302
63
root 6.06729 16.5465 -4.6305 115.405 -86.3379 -116.163
lowerback -2.20464 -0.658398 2.76422
upperback 0.588414 -0.963996 0.196509
thorax 1.79767 -0.453046 -1.38323
lowerneck -8.391 -0.484686 0.870629
upperneck 5.74033 -0.975759 2.7171
head 3.34922 -0.356989 0.683623
rclavicle -7.74018e-015 1.09332e-014
rhumerus 7.13777 -14.4774 -23.0573
rradius 23.9721
rwrist 7.19278
rhand -9.62254 -6.43597
rfingers 7.12502
rthumb 16.3471 -35.767
lclavicle -7.74018e-015 1.09332e-014
lhumerus 0.861754 -2.18489 13.6924
lradius 29.4677
lwrist 27.4298
lhand -6.02267 21.6138
lfingers 7.12502
lthumb 19.8106 50.6242
rfemur -6.69931 2.92483 23.4846
rtibia 30.6692
rfoot -23.7358 -11.9301
rtoes 2.16825
lfemur 2.80184 3.84723 -13.3333
ltibia 14.4158
lfoot -16.1396 11.4323
ltoes -2.36564
64
root 6.06849 16.5458 -4.63055 115.426 -86.3349 -116.204
lowerback -2.19583 -0.65862 2.76047
upperback 0.593502 -0.964137 0.203009
thorax 1.79811 -0.453155 -1.37438
lowerneck -8.45188 -0.486505 0.860913
upperneck 5.79846 -0.97873 2.7048
head 3.38125 -0.357931 0.681413
rclavicle -7.57867e-015 -2.38542e-015
rhumerus 7.19773 -14.6577 -23.0565
rradius 23.9266
rwrist 7.30865
rhand -9.72071 -6.42977
rfingers 7.12502
rthumb 16.2526 -35.7686
lclavicle -7.57867e-015 -2.38542e-015
lhumerus 0.918589 -2.22258 13.5542
lradius 29.4493
lwrist 27.4993
lhand -6.00933 21.5325
lfingers 7.12502
lthumb 19.8234 50.5415
rfemur -6.68452 2.93193 23.488
rtibia 30.6693
rfoot -23.7162 -11.9561
rtoes 2.14369
lfemur 2.82123 3.85989 -13.3274
ltibia 14.4185
lfoot -16.1374 11.4245
ltoes -2.41131
65
root 6.07074 16.5463 -4.63068 115.971 -86.3404 -116.749
lowerback -2.17466 -0.648498 2.73194
upperback 0.574942 -0.948745 0.203249
thorax 1.76827 -0.446349 -1.35715
lowerneck -8.43325 -0.487512 0.858758
upperneck 5.80093 -0.978627 2.69424
head 3.3784 -0.358447 0.678325
rclavicle 7.83957e-015 -1.03368e-014
rhumerus 7.23171 -14.7687 -23.0372
rradius 23.9036
rwrist 7.36165
rhand -9.76386 -6.40383
rfingers 7.12502
rthumb 16.211 -35.746
lclavicle 7.83957e-015 -1.03368e-014
lhumerus 1.00525 -2.1142 13.4529
lradius 29.3195
lwrist 27.2815
lhand -5.72425 21.2551
lfingers 7.12502
lthumb 20.0974 50.2356
rfemur -6.7022 2.94398 23.4654
rtibia 30.6715
rfoot -23.7133 -11.9486
rtoes 2.15826
lfemur 2.81153 3.88546 -13.3507
ltibia 14.4239
lfoot -16.1198 11.4403
ltoes -2.50633
